<svg width="504" height="372" viewBox="0 0 504 372" fill="none" xmlns="http://www.w3.org/2000/svg">
<g clip-path="url(#clip0_917_1011)">
<path d="M101.861 -0.267429C102.85 -0.271961 103.838 -0.276492 104.857 -0.28116C108.168 -0.293814 111.479 -0.292183 114.79 -0.290531C117.166 -0.296516 119.542 -0.303322 121.918 -0.310886C127.704 -0.326731 133.491 -0.332996 139.277 -0.334111C143.991 -0.335064 148.705 -0.339184 153.419 -0.345512C166.82 -0.363133 180.221 -0.372352 193.621 -0.370852C194.343 -0.370772 195.066 -0.370692 195.81 -0.370609C196.894 -0.370487 196.894 -0.370487 198 -0.370362C209.672 -0.369552 221.344 -0.388611 233.015 -0.416886C245.035 -0.44577 257.054 -0.459417 269.073 -0.457699C275.806 -0.457039 282.539 -0.462725 289.273 -0.484055C295.624 -0.503622 301.975 -0.503437 308.327 -0.489021C310.639 -0.486954 312.951 -0.491508 315.263 -0.503742C334.72 -0.599902 354.135 1.13967 372.75 7.1875C373.683 7.48229 374.616 7.77708 375.577 8.08081C422.751 23.4981 461.652 57.4578 484.312 101.43C506.349 145.494 510.082 196.558 495.316 243.543C489.06 262.241 480.015 280.326 468 296C467.335 296.874 466.67 297.748 465.984 298.648C461.269 304.682 456.221 310.401 451 316C450.276 316.79 449.551 317.58 448.805 318.395C416.083 352.725 368.04 370.839 321.233 372.102C311.219 372.268 301.202 372.182 291.187 372.125C280.896 372.084 270.604 372.043 260 372C260 345.6 260 319.2 260 292C262.745 293.098 265.487 294.208 268.207 295.367C298.552 308.058 330.545 309.239 361.434 297.535C373.284 292.434 384.054 286.247 394 278C395.29 276.938 395.29 276.938 396.605 275.855C420.202 255.551 434.343 225.605 436.661 194.739C438.487 164.058 429.647 133.897 410 110C409.582 109.487 409.163 108.974 408.732 108.445C388.515 84.0686 359.373 69.4873 327.988 66.4687C296.604 64.0403 265.466 72.8847 241 93C240.487 93.4183 239.974 93.8366 239.445 94.2676C214.551 114.914 201.329 139.101 198 171C196 171 196 171 196 171C196 171 197 171 194 171C193.118 170.999 192.235 170.997 191.326 170.996C169.834 170.958 148.341 170.899 126.849 170.816C116.455 170.776 106.062 170.744 95.6679 170.729C86.6064 170.716 77.545 170.689 68.4836 170.645C63.6877 170.623 58.8921 170.607 54.0962 170.608C49.5767 170.609 45.0578 170.591 40.5385 170.559C38.885 170.55 37.2315 170.549 35.578 170.554C24.9111 170.586 15.4345 170.247 7.12497 162.75C0.66397 155.479 -0.743857 149.509 -0.44144 139.695C0.550798 131.389 4.38686 125.923 10.5468 120.473C18.9036 115.456 27.466 115.584 36.9748 115.659C38.4737 115.66 39.9725 115.66 41.4714 115.658C45.5163 115.657 49.5609 115.675 53.6057 115.696C57.8418 115.715 62.0778 115.716 66.3139 115.72C74.3248 115.729 82.3355 115.754 90.3463 115.784C99.4709 115.818 108.595 115.834 117.72 115.849C136.48 115.88 155.24 115.933 174 116C174.352 117.031 173.655 114.99 174 116C166.5 99 165 85.5 177.5 66C176.049 65.9912 173.549 65.9912 172.068 65.9822C162.918 65.9248 153.767 65.852 144.617 65.7643C139.914 65.7197 135.21 65.6804 130.507 65.6536C125.961 65.6274 121.416 65.5869 116.871 65.5368C115.143 65.5202 113.416 65.5087 111.688 65.5024C98.6689 65.4504 87.3278 64.7648 77 56C70.3789 49.0176 67 40.6277 67 31C67.8588 22.3719 70.8872 14.278 77 8C85.1102 1.78165 91.732 -0.30155 101.861 -0.267429Z" fill="white"/>
<path d="M196 200C196.33 200 196.66 200 197 200C197 259.4 197 310.8 197 372C180.686 372.041 164.371 372.082 147.563 372.125C139.854 372.152 139.854 372.152 131.99 372.18C125.683 372.189 125.683 372.189 122.725 372.191C120.672 372.194 118.619 372.201 116.566 372.211C113.444 372.226 110.323 372.228 107.201 372.227C105.845 372.238 105.845 372.238 104.461 372.249C94.3733 372.216 86.0827 370.266 78 364C70.8232 356.715 67 348.259 67 338C67.8588 329.372 70.8873 321.278 77 315C84.4805 309.264 90.7845 306.708 100.3 306.681C101.111 306.671 101.921 306.661 102.756 306.651C105.418 306.62 108.08 306.603 110.742 306.586C112.595 306.567 114.447 306.548 116.299 306.527C121.162 306.476 126.025 306.436 130.888 306.399C135.855 306.359 140.822 306.308 145.789 306.258C155.526 306.161 165.263 306.077 175 306C174.578 305.18 174.157 304.36 173.723 303.516C173.175 302.438 172.627 301.36 172.063 300.25C171.517 299.183 170.972 298.115 170.41 297.016C164.895 285.221 163 275 174 255C173.216 255.005 172.431 255.009 171.623 255.014C152.509 255.125 133.395 255.207 114.281 255.259C105.037 255.285 95.7938 255.32 86.5503 255.377C78.4909 255.427 70.4316 255.459 62.372 255.47C58.107 255.477 53.8424 255.492 49.5775 255.529C45.5571 255.563 41.5374 255.573 37.5169 255.566C36.0472 255.567 34.5775 255.577 33.1079 255.596C22.6636 255.726 15.2019 254.41 7.12501 247.563C0.0232639 238.999 -0.948265 231.813 1.45137e-05 221C2.01792 214.05 5.93802 208.912 12 205C18.2065 201.632 24.0761 200.878 31.0551 200.842C32.1029 200.834 32.1029 200.834 33.1717 200.827C35.5055 200.812 37.8393 200.803 40.1731 200.795C41.8487 200.785 43.5243 200.775 45.1999 200.765C49.7449 200.738 54.2899 200.717 58.8349 200.697C63.5862 200.675 68.3374 200.647 73.0887 200.621C82.0842 200.571 91.0796 200.526 100.075 200.483C110.317 200.433 120.559 200.378 130.8 200.323C151.867 200.209 172.933 200.102 194 200C197 200 193.5 200.002 196 200Z" fill="white"/>
<circle cx="317" cy="185" r="40" fill="white"/>
</g>
<defs>
<clipPath id="clip0_917_1011">
<rect width="504" height="372" fill="white"/>
</clipPath>
</defs>
</svg>
